<mxfile host="app.diagrams.net" modified="2023-12-26T01:32:00.346Z" agent="Mozilla/5.0 (Windows NT 10.0; Win64; x64) AppleWebKit/537.36 (KHTML, like Gecko) Chrome/120.0.0.0 Safari/537.36 Edg/120.0.0.0" etag="RXc0n26IC_Fk64XYaxyL" version="22.1.11" type="github">
  <diagram name="第 1 页" id="gJ-0IFceFZDGzHO0j6Qg">
    <mxGraphModel dx="622" dy="383" grid="0" gridSize="10" guides="1" tooltips="1" connect="1" arrows="1" fold="1" page="1" pageScale="1" pageWidth="827" pageHeight="1169" math="0" shadow="0">
      <root>
        <mxCell id="0" />
        <mxCell id="1" parent="0" />
        <mxCell id="mgaB8ZRoU7k9B6jFIUm_-3" value="Android消息解析" style="text;strokeColor=none;fillColor=none;html=1;fontSize=24;fontStyle=1;verticalAlign=middle;align=center;" parent="1" vertex="1">
          <mxGeometry x="100" y="43" width="100" height="40" as="geometry" />
        </mxCell>
        <mxCell id="nlna6v_LmmTtRzZrwIii-4" value="0x20" style="text;html=1;strokeColor=none;fillColor=none;align=center;verticalAlign=middle;whiteSpace=wrap;rounded=0;" vertex="1" parent="1">
          <mxGeometry x="82" y="153" width="60" height="30" as="geometry" />
        </mxCell>
        <mxCell id="nlna6v_LmmTtRzZrwIii-7" value="0x2A" style="text;html=1;strokeColor=none;fillColor=none;align=center;verticalAlign=middle;whiteSpace=wrap;rounded=0;" vertex="1" parent="1">
          <mxGeometry x="219" y="560" width="60" height="30" as="geometry" />
        </mxCell>
        <mxCell id="nlna6v_LmmTtRzZrwIii-8" value="0x29" style="text;html=1;strokeColor=none;fillColor=none;align=center;verticalAlign=middle;whiteSpace=wrap;rounded=0;" vertex="1" parent="1">
          <mxGeometry x="445" y="334" width="60" height="30" as="geometry" />
        </mxCell>
        <mxCell id="nlna6v_LmmTtRzZrwIii-12" value="0x25" style="text;html=1;strokeColor=none;fillColor=none;align=center;verticalAlign=middle;whiteSpace=wrap;rounded=0;" vertex="1" parent="1">
          <mxGeometry x="425" y="153" width="60" height="30" as="geometry" />
        </mxCell>
        <mxCell id="nlna6v_LmmTtRzZrwIii-13" value="0x24" style="text;html=1;strokeColor=none;fillColor=none;align=center;verticalAlign=middle;whiteSpace=wrap;rounded=0;" vertex="1" parent="1">
          <mxGeometry x="360" y="153" width="60" height="30" as="geometry" />
        </mxCell>
        <mxCell id="nlna6v_LmmTtRzZrwIii-14" value="0x23" style="text;html=1;strokeColor=none;fillColor=none;align=center;verticalAlign=middle;whiteSpace=wrap;rounded=0;" vertex="1" parent="1">
          <mxGeometry x="295" y="153" width="60" height="30" as="geometry" />
        </mxCell>
        <mxCell id="nlna6v_LmmTtRzZrwIii-15" value="0x22" style="text;html=1;strokeColor=none;fillColor=none;align=center;verticalAlign=middle;whiteSpace=wrap;rounded=0;" vertex="1" parent="1">
          <mxGeometry x="226" y="153" width="60" height="30" as="geometry" />
        </mxCell>
        <mxCell id="nlna6v_LmmTtRzZrwIii-16" value="0x21" style="text;html=1;strokeColor=none;fillColor=none;align=center;verticalAlign=middle;whiteSpace=wrap;rounded=0;" vertex="1" parent="1">
          <mxGeometry x="159" y="153" width="60" height="30" as="geometry" />
        </mxCell>
        <mxCell id="nlna6v_LmmTtRzZrwIii-20" value="0x2D" style="text;html=1;strokeColor=none;fillColor=none;align=center;verticalAlign=middle;whiteSpace=wrap;rounded=0;" vertex="1" parent="1">
          <mxGeometry x="474" y="258" width="60" height="30" as="geometry" />
        </mxCell>
        <mxCell id="nlna6v_LmmTtRzZrwIii-21" value="0x2F" style="text;html=1;strokeColor=none;fillColor=none;align=center;verticalAlign=middle;whiteSpace=wrap;rounded=0;" vertex="1" parent="1">
          <mxGeometry x="541" y="330" width="60" height="30" as="geometry" />
        </mxCell>
        <mxCell id="nlna6v_LmmTtRzZrwIii-23" value="" style="rounded=0;whiteSpace=wrap;html=1;" vertex="1" parent="1">
          <mxGeometry x="47" y="512" width="382" height="377" as="geometry" />
        </mxCell>
        <mxCell id="nlna6v_LmmTtRzZrwIii-25" value="MsgHandler" style="text;html=1;strokeColor=none;fillColor=none;align=center;verticalAlign=middle;whiteSpace=wrap;rounded=0;fontSize=20;" vertex="1" parent="1">
          <mxGeometry x="62" y="515" width="90" height="52" as="geometry" />
        </mxCell>
        <mxCell id="nlna6v_LmmTtRzZrwIii-26" value="0x20：AVM前台显示" style="text;html=1;strokeColor=none;fillColor=none;align=center;verticalAlign=middle;whiteSpace=wrap;rounded=0;" vertex="1" parent="1">
          <mxGeometry x="42" y="560" width="135" height="30" as="geometry" />
        </mxCell>
        <mxCell id="nlna6v_LmmTtRzZrwIii-27" value="0x21：AVM退至后台" style="text;html=1;strokeColor=none;fillColor=none;align=center;verticalAlign=middle;whiteSpace=wrap;rounded=0;" vertex="1" parent="1">
          <mxGeometry x="42" y="593" width="135" height="30" as="geometry" />
        </mxCell>
        <mxCell id="nlna6v_LmmTtRzZrwIii-28" value="0x22：语音控制AVM" style="text;html=1;strokeColor=none;fillColor=none;align=center;verticalAlign=middle;whiteSpace=wrap;rounded=0;" vertex="1" parent="1">
          <mxGeometry x="42" y="627" width="135" height="30" as="geometry" />
        </mxCell>
        <mxCell id="nlna6v_LmmTtRzZrwIii-29" value="0x23：切换主题" style="text;html=1;strokeColor=none;fillColor=none;align=left;verticalAlign=middle;whiteSpace=wrap;rounded=0;" vertex="1" parent="1">
          <mxGeometry x="53" y="660" width="135" height="30" as="geometry" />
        </mxCell>
        <mxCell id="nlna6v_LmmTtRzZrwIii-30" value="0x24：切换显示方向" style="text;html=1;strokeColor=none;fillColor=none;align=left;verticalAlign=middle;whiteSpace=wrap;rounded=0;" vertex="1" parent="1">
          <mxGeometry x="53" y="690" width="135" height="30" as="geometry" />
        </mxCell>
        <mxCell id="nlna6v_LmmTtRzZrwIii-31" value="0x25：语言模式" style="text;html=1;strokeColor=none;fillColor=none;align=center;verticalAlign=middle;whiteSpace=wrap;rounded=0;" vertex="1" parent="1">
          <mxGeometry x="42" y="723" width="135" height="30" as="geometry" />
        </mxCell>
        <mxCell id="nlna6v_LmmTtRzZrwIii-32" value="0x26：AVM退至后台" style="text;html=1;strokeColor=none;fillColor=none;align=center;verticalAlign=middle;whiteSpace=wrap;rounded=0;" vertex="1" parent="1">
          <mxGeometry x="42" y="753" width="135" height="30" as="geometry" />
        </mxCell>
        <mxCell id="nlna6v_LmmTtRzZrwIii-33" value="0x27：AVM退至后台" style="text;html=1;strokeColor=none;fillColor=none;align=center;verticalAlign=middle;whiteSpace=wrap;rounded=0;" vertex="1" parent="1">
          <mxGeometry x="42" y="783" width="135" height="30" as="geometry" />
        </mxCell>
        <mxCell id="nlna6v_LmmTtRzZrwIii-35" value="0x28：AVM退至后台" style="text;html=1;strokeColor=none;fillColor=none;align=center;verticalAlign=middle;whiteSpace=wrap;rounded=0;" vertex="1" parent="1">
          <mxGeometry x="39.5" y="813" width="135" height="30" as="geometry" />
        </mxCell>
        <mxCell id="nlna6v_LmmTtRzZrwIii-36" value="0x29：AVM退至后台" style="text;html=1;strokeColor=none;fillColor=none;align=center;verticalAlign=middle;whiteSpace=wrap;rounded=0;" vertex="1" parent="1">
          <mxGeometry x="44.5" y="843" width="135" height="30" as="geometry" />
        </mxCell>
        <mxCell id="nlna6v_LmmTtRzZrwIii-37" value="0x2A：AVM退至后台" style="text;html=1;strokeColor=none;fillColor=none;align=center;verticalAlign=middle;whiteSpace=wrap;rounded=0;" vertex="1" parent="1">
          <mxGeometry x="212" y="563" width="135" height="30" as="geometry" />
        </mxCell>
        <mxCell id="nlna6v_LmmTtRzZrwIii-38" value="0x2B：AVM退至后台" style="text;html=1;strokeColor=none;fillColor=none;align=center;verticalAlign=middle;whiteSpace=wrap;rounded=0;" vertex="1" parent="1">
          <mxGeometry x="212" y="593" width="135" height="30" as="geometry" />
        </mxCell>
        <mxCell id="nlna6v_LmmTtRzZrwIii-39" value="0x2C：AVM退至后台" style="text;html=1;strokeColor=none;fillColor=none;align=center;verticalAlign=middle;whiteSpace=wrap;rounded=0;" vertex="1" parent="1">
          <mxGeometry x="212" y="623" width="135" height="30" as="geometry" />
        </mxCell>
        <mxCell id="nlna6v_LmmTtRzZrwIii-40" value="0x2D：AVM退至后台" style="text;html=1;strokeColor=none;fillColor=none;align=center;verticalAlign=middle;whiteSpace=wrap;rounded=0;" vertex="1" parent="1">
          <mxGeometry x="212" y="657" width="135" height="30" as="geometry" />
        </mxCell>
        <mxCell id="nlna6v_LmmTtRzZrwIii-41" value="0x2F：AVM退至后台" style="text;html=1;strokeColor=none;fillColor=none;align=center;verticalAlign=middle;whiteSpace=wrap;rounded=0;" vertex="1" parent="1">
          <mxGeometry x="212" y="687" width="135" height="30" as="geometry" />
        </mxCell>
      </root>
    </mxGraphModel>
  </diagram>
</mxfile>
